<svg xmlns="http://www.w3.org/2000/svg" viewBox="0 0 256 256" role="img" aria-labelledby="title desc">
  <title id="title">Battle Ops hero logo</title>
  <desc id="desc">Compass ring, sonar grid, cyan sweep, and central battleship silhouette.</desc>
  <rect width="256" height="256" rx="28" fill="#05070A"/>
  <circle cx="128" cy="128" r="94" fill="none" stroke="#66F2FF" stroke-opacity="0.16" stroke-width="2"/>
  <circle cx="128" cy="128" r="72" fill="none" stroke="#66F2FF" stroke-opacity="0.2" stroke-width="2"/>
  <circle cx="128" cy="128" r="50" fill="none" stroke="#66F2FF" stroke-opacity="0.26" stroke-width="2"/>
  <path d="M128 28v28M128 200v28M28 128h28M200 128h28M62 62l20 20M174 174l20 20M194 62l-20 20M82 174l-20 20" stroke="#2C3A47" stroke-width="3" stroke-linecap="round"/>
  <path d="M128 128L194 76A92 92 0 0 1 214 128Z" fill="#00E5FF" fill-opacity="0.18"/>
  <path d="M128 128L196 78" stroke="#00E5FF" stroke-width="5" stroke-linecap="round"/>
  <circle cx="128" cy="128" r="7" fill="#66F2FF"/>
  <path d="M86 133h84l-10 10H96Zm14-20h34l8 8h-50Zm20-14h16l5 8h-26Z" fill="#EDFAFF"/>
  <text x="124" y="22" fill="#66F2FF" font-family="'IBM Plex Mono', monospace" font-size="12" text-anchor="middle">N</text>
  <text x="124" y="246" fill="#66F2FF" font-family="'IBM Plex Mono', monospace" font-size="12" text-anchor="middle">S</text>
  <text x="16" y="132" fill="#66F2FF" font-family="'IBM Plex Mono', monospace" font-size="12" text-anchor="middle">W</text>
  <text x="240" y="132" fill="#66F2FF" font-family="'IBM Plex Mono', monospace" font-size="12" text-anchor="middle">E</text>
</svg>
